<svg width="29" height="29" viewBox="0 0 29 29" fill="none" xmlns="http://www.w3.org/2000/svg">
<path d="M9.0424 6.35516C7.65955 6.50972 6.55265 7.60114 6.39266 8.9691C5.96286 12.6438 5.96286 16.3561 6.39266 20.0308C6.55265 21.3988 7.65955 22.4902 9.0424 22.6448C12.6394 23.0468 16.3606 23.0468 19.9576 22.6448C21.3405 22.4902 22.4474 21.3988 22.6074 20.0308C22.9162 17.3904 23.0031 14.7307 22.8681 12.0794C22.8647 12.0109 22.8902 11.9441 22.9387 11.8956L24.1939 10.6404C24.3392 10.4952 24.5874 10.586 24.6028 10.7909C24.8397 13.9385 24.7746 17.1031 24.4076 20.2414C24.148 22.4611 22.3658 24.1994 20.1589 24.4461C16.4281 24.863 12.5719 24.863 8.84108 24.4461C6.6342 24.1994 4.85204 22.461 4.59243 20.2414C4.14627 16.4268 4.14627 12.5732 4.59243 8.75855C4.85204 6.53889 6.63421 4.80053 8.84108 4.55388C12.5719 4.13691 16.4281 4.13691 20.1589 4.55388C20.9362 4.64075 21.6608 4.91266 22.2847 5.32547C22.4075 5.4067 22.4197 5.57929 22.3156 5.68339L21.3454 6.65354C21.2661 6.7329 21.143 6.74625 21.0441 6.69324C20.7137 6.51623 20.3466 6.39863 19.9576 6.35516C16.3606 5.95315 12.6394 5.95315 9.0424 6.35516Z" fill="white"/>
<path d="M25.4116 7.28662C25.7656 6.93271 25.7656 6.3589 25.4116 6.00499C25.0577 5.65108 24.4839 5.65108 24.13 6.00499L13.8958 16.2392L10.9116 13.255C10.5577 12.9011 9.98392 12.9011 9.63001 13.255C9.2761 13.6089 9.2761 14.1827 9.63001 14.5366L13.255 18.1616C13.6089 18.5155 14.1827 18.5155 14.5366 18.1616L25.4116 7.28662Z" fill="white"/>
</svg>
