<svg width="29" height="29" viewBox="0 0 29 29" fill="none" xmlns="http://www.w3.org/2000/svg">
<path d="M14.5 11.7812C15.0005 11.7812 15.4063 12.187 15.4063 12.6875V14.8021H17.5208C18.0213 14.8021 18.4271 15.2078 18.4271 15.7083C18.4271 16.2088 18.0213 16.6146 17.5208 16.6146H15.4063V18.7292C15.4063 19.2297 15.0005 19.6354 14.5 19.6354C13.9995 19.6354 13.5938 19.2297 13.5938 18.7292V16.6146H11.4792C10.9787 16.6146 10.5729 16.2088 10.5729 15.7083C10.5729 15.2078 10.9787 14.8021 11.4792 14.8021H13.5938V12.6875C13.5938 12.187 13.9995 11.7812 14.5 11.7812Z" fill="white"/>
<path fill-rule="evenodd" clip-rule="evenodd" d="M10.15 6.34375C6.78981 6.34375 3.92709 8.85624 3.92709 12.1193C3.92709 14.3546 4.88032 16.3203 6.20096 17.9819C7.51931 19.6406 9.24382 21.0483 10.895 22.1922C11.5257 22.6291 12.1637 23.0322 12.7476 23.3295C13.2959 23.6088 13.9264 23.8646 14.5 23.8646C15.0737 23.8646 15.7041 23.6088 16.2524 23.3295C16.8363 23.0322 17.4744 22.6291 18.105 22.1922C19.7562 21.0483 21.4807 19.6406 22.7991 17.9819C24.1197 16.3203 25.0729 14.3546 25.0729 12.1193C25.0729 8.85624 22.2102 6.34375 18.85 6.34375C17.1179 6.34375 15.5937 7.15592 14.5 8.2068C13.4063 7.15592 11.8821 6.34375 10.15 6.34375ZM5.73959 12.1193C5.73959 10.0039 7.63758 8.15625 10.15 8.15625C11.5929 8.15625 12.9403 9.0183 13.7816 10.1124C13.9531 10.3356 14.2186 10.4663 14.5 10.4663C14.7814 10.4663 15.0469 10.3356 15.2184 10.1124C16.0597 9.0183 17.4071 8.15625 18.85 8.15625C21.3624 8.15625 23.2604 10.0039 23.2604 12.1193C23.2604 13.8152 22.5405 15.3942 21.3801 16.8541C20.2175 18.3169 18.6531 19.6075 17.0729 20.7023C16.4749 21.1166 15.9117 21.4691 15.4299 21.7144C14.9125 21.9779 14.6128 22.0521 14.5 22.0521C14.3872 22.0521 14.0875 21.9779 13.5701 21.7144C13.0884 21.4691 12.5251 21.1166 11.9272 20.7023C10.3469 19.6075 8.78252 18.3169 7.61987 16.8541C6.4595 15.3942 5.73959 13.8152 5.73959 12.1193Z" fill="white"/>
</svg>
