<svg width="29" height="29" viewBox="0 0 29 29" fill="none" xmlns="http://www.w3.org/2000/svg">
<path fill-rule="evenodd" clip-rule="evenodd" d="M16.3824 6.68722C15.3304 5.67783 13.6696 5.67783 12.6176 6.68722L7.02735 12.0514C6.89039 12.1828 6.79825 12.354 6.76402 12.5408C6.09444 16.1922 6.04502 19.9303 6.61782 23.5981L6.75378 24.4687H10.3503V16.9634C10.3503 16.4629 10.7561 16.0571 11.2566 16.0571H17.7434C18.2439 16.0571 18.6497 16.4629 18.6497 16.9634V24.4687H22.2462L22.3822 23.5981C22.955 19.9303 22.9056 16.1922 22.236 12.5408C22.2018 12.354 22.1096 12.1828 21.9727 12.0514L16.3824 6.68722ZM11.3627 5.37942C13.1159 3.6971 15.8841 3.6971 17.6373 5.37942L23.2276 10.7436C23.6391 11.1385 23.9159 11.6529 24.0188 12.2138C24.7251 16.0656 24.7772 20.0088 24.173 23.8778L23.9546 25.2764C23.8642 25.8548 23.3661 26.2812 22.7806 26.2812H17.7434C17.2429 26.2812 16.8372 25.8755 16.8372 25.375V17.8696H12.1628V25.375C12.1628 25.8755 11.7571 26.2812 11.2566 26.2812H6.21937C5.63395 26.2812 5.13577 25.8548 5.04544 25.2764L4.82702 23.8778C4.2228 20.0088 4.27494 16.0656 4.98124 12.2138C5.08411 11.6529 5.36092 11.1385 5.77244 10.7436L11.3627 5.37942Z" fill="white"/>
</svg>
