<svg width="20" height="25" viewBox="0 0 20 25" fill="none" xmlns="http://www.w3.org/2000/svg">
<path fill-rule="evenodd" clip-rule="evenodd" d="M14.2585 2.97339L15.2074 3.09157C17.3976 3.36434 19.0417 5.22586 19.0417 7.43302V19.6707C19.0417 21.8137 17.4454 23.6212 15.3188 23.886C11.7866 24.3259 8.21345 24.3259 4.68126 23.886C2.55464 23.6212 0.958344 21.8137 0.958344 19.6707V7.43302C0.958344 5.22586 2.6024 3.36434 4.79265 3.09157L5.74156 2.97339C6.11744 1.61906 7.3593 0.625 8.83334 0.625H11.1667C12.6407 0.625 13.8826 1.61906 14.2585 2.97339ZM5.62501 4.75142L5.00893 4.82815C3.69478 4.99182 2.70834 6.10872 2.70834 7.43302V19.6707C2.70834 20.9309 3.64702 21.9937 4.89754 22.1494C8.2861 22.5715 11.7139 22.5715 15.1025 22.1494C16.353 21.9937 17.2917 20.9309 17.2917 19.6707V7.43302C17.2917 6.10873 16.3052 4.99182 14.9911 4.82815L14.375 4.75142V6.16667C14.375 6.64992 13.9833 7.04167 13.5 7.04167H6.50001C6.01676 7.04167 5.62501 6.64992 5.62501 6.16667V4.75142ZM7.37501 3.83333C7.37501 3.02792 8.02793 2.375 8.83334 2.375H11.1667C11.9721 2.375 12.625 3.02792 12.625 3.83333V5.29167H7.37501V3.83333Z" fill="white"/>
<path d="M14.375 11.7083C14.375 11.2251 13.9833 10.8333 13.5 10.8333H6.50001C6.01676 10.8333 5.62501 11.2251 5.62501 11.7083C5.62501 12.1916 6.01676 12.5833 6.50001 12.5833H13.5C13.9833 12.5833 14.375 12.1916 14.375 11.7083Z" fill="white"/>
<path d="M13.2083 15.2083C13.2083 14.7251 12.8166 14.3333 12.3333 14.3333H6.50001C6.01676 14.3333 5.62501 14.7251 5.62501 15.2083C5.62501 15.6916 6.01676 16.0833 6.50001 16.0833H12.3333C12.8166 16.0833 13.2083 15.6916 13.2083 15.2083Z" fill="white"/>
</svg>
