<svg width="31" height="31" viewBox="0 0 31 31" fill="none" xmlns="http://www.w3.org/2000/svg">
<path fill-rule="evenodd" clip-rule="evenodd" d="M15.5 2.90625C14.965 2.90625 14.5313 3.33997 14.5313 3.875V9.04167C14.5313 9.0415 14.5313 9.04184 14.5313 9.04167L14.5313 18.4185C13.5738 17.6052 12.3338 17.1146 10.9792 17.1146C7.94736 17.1146 5.48959 19.5724 5.48959 22.6042C5.48959 25.636 7.94736 28.0938 10.9792 28.0938C14.011 28.0938 16.4688 25.636 16.4688 22.6042C16.4688 22.4507 16.4625 22.2987 16.4501 22.1484C16.4623 22.087 16.4688 22.0234 16.4688 21.9583L16.4688 10.0104H23.25C25.2118 10.0104 26.8021 8.42009 26.8021 6.45833C26.8021 4.49657 25.2118 2.90625 23.25 2.90625H15.5ZM16.4688 8.07292H23.25C24.1417 8.07292 24.8646 7.35004 24.8646 6.45833C24.8646 5.56662 24.1417 4.84375 23.25 4.84375H16.4688V8.07292ZM10.9792 19.0521C9.01741 19.0521 7.42709 20.6424 7.42709 22.6042C7.42709 24.5659 9.01741 26.1562 10.9792 26.1562C12.9409 26.1562 14.5313 24.5659 14.5313 22.6042C14.5313 20.6424 12.9409 19.0521 10.9792 19.0521Z" fill="white"/>
</svg>
