<svg width="29" height="29" viewBox="0 0 29 29" fill="none" xmlns="http://www.w3.org/2000/svg">
<path fill-rule="evenodd" clip-rule="evenodd" d="M12.5894 5.11191C13.3641 3.77682 15.4062 4.32641 15.4062 5.86997V19.9841C15.4062 21.2176 14.7229 22.3496 13.6315 22.9243L9.67341 25.0084C8.10619 25.8336 6.27964 24.4817 6.61096 22.7418L7.45677 18.3C7.55973 17.7593 7.36045 17.2055 6.93663 16.8544L3.91713 14.3527C2.51028 13.1872 3.14394 10.9064 4.95039 10.6335L9.09455 10.0076C9.54775 9.93914 9.94535 9.66861 10.1754 9.27217L12.5894 5.11191ZM13.5937 6.99246L11.7431 10.1818C11.237 11.054 10.3623 11.6492 9.36523 11.7998L5.22108 12.4257C4.96301 12.4647 4.87249 12.7905 5.07347 12.957L8.09298 15.4586C9.02536 16.2311 9.46378 17.4496 9.23728 18.639L8.39147 23.0808C8.34414 23.3294 8.60507 23.5225 8.82896 23.4046L12.787 21.3205C13.2832 21.0593 13.5937 20.5448 13.5937 19.9841V6.99246Z" fill="white"/>
</svg>
