<svg width="29" height="29" viewBox="0 0 29 29" fill="none" xmlns="http://www.w3.org/2000/svg">
<path fill-rule="evenodd" clip-rule="evenodd" d="M8.15625 9.06248C8.15625 6.22627 10.4554 3.92706 13.2917 3.92706C16.1279 3.92706 18.4271 6.22627 18.4271 9.06248C18.4271 11.8987 16.1279 14.1979 13.2917 14.1979C10.4554 14.1979 8.15625 11.8987 8.15625 9.06248ZM13.2917 5.73956C11.4565 5.73956 9.96875 7.22728 9.96875 9.06248C9.96875 10.8977 11.4565 12.3854 13.2917 12.3854C15.1269 12.3854 16.6146 10.8977 16.6146 9.06248C16.6146 7.22728 15.1269 5.73956 13.2917 5.73956Z" fill="white"/>
<path fill-rule="evenodd" clip-rule="evenodd" d="M3.92708 20.5416C3.92708 18.0391 5.95579 16.0104 8.45833 16.0104H8.87021C9.09314 16.0104 9.31467 16.0456 9.52658 16.1148L10.5724 16.4563C12.3393 17.0333 14.244 17.0333 16.0109 16.4563L17.0567 16.1148C17.2687 16.0456 17.4902 16.0104 17.7131 16.0104H18.125C20.6275 16.0104 22.6562 18.0391 22.6562 20.5416V21.9775C22.6562 22.8876 21.9966 23.6637 21.0984 23.8103C15.9281 24.6545 10.6552 24.6545 5.48495 23.8103C4.58669 23.6637 3.92708 22.8876 3.92708 21.9775V20.5416ZM8.45833 17.8229C6.9568 17.8229 5.73958 19.0401 5.73958 20.5416V21.9775C5.73958 21.9993 5.75542 22.018 5.777 22.0215C10.7538 22.8341 15.8295 22.8341 20.8063 22.0215C20.8279 22.018 20.8437 21.9994 20.8437 21.9775V20.5416C20.8437 19.0401 19.6265 17.8229 18.125 17.8229H17.7131C17.6813 17.8229 17.6496 17.8279 17.6193 17.8378L16.5735 18.1793C14.441 18.8756 12.1423 18.8756 10.0098 18.1793L8.96398 17.8378C8.93371 17.8279 8.90206 17.8229 8.87021 17.8229H8.45833Z" fill="white"/>
<path d="M23.5625 7.55206C24.063 7.55206 24.4687 7.95781 24.4687 8.45831V10.5729H26.5833C27.0838 10.5729 27.4896 10.9786 27.4896 11.4791C27.4896 11.9797 27.0838 12.3854 26.5833 12.3854H24.4687V14.5C24.4687 15.0005 24.063 15.4062 23.5625 15.4062C23.062 15.4062 22.6562 15.0005 22.6562 14.5V12.3854H20.5417C20.0412 12.3854 19.6354 11.9797 19.6354 11.4791C19.6354 10.9786 20.0412 10.5729 20.5417 10.5729H22.6562V8.45831C22.6562 7.95781 23.062 7.55206 23.5625 7.55206Z" fill="white"/>
</svg>
